{
    "asset" : {
        "generator" : "Khronos glTF Blender I/O v1.6.16",
        "version" : "2.0"
    },
    "scene" : 0,
    "scenes" : [
        {
            "name" : "Scene",
            "nodes" : [
                1,
                2,
                3
            ]
        }
    ],
    "nodes" : [
        {
            "mesh" : 0,
            "name" : "Cilindro.001",
            "rotation" : [
                0.0002555251703597605,
                0,
                0,
                1
            ],
            "translation" : [
                0,
                2.0696702003479004,
                -0.005723011214286089
            ]
        },
        {
            "children" : [
                0
            ],
            "mesh" : 1,
            "name" : "Cilindro",
            "rotation" : [
                0.7069261074066162,
                0,
                0,
                0.7072874307632446
            ],
            "translation" : [
                0,
                3.4801669120788574,
                0
            ]
        },
        {
            "name" : "Point",
            "translation" : [
                4.569660186767578,
                7.620224952697754,
                7.832653999328613
            ]
        },
        {
            "name" : "C\u00e2mara",
            "rotation" : [
                0.47992002964019775,
                -0.07637525349855423,
                0.04198748990893364,
                0.8729724287986755
            ],
            "translation" : [
                -3.2499029636383057,
                16.52261734008789,
                22.23828125
            ]
        }
    ],
    "animations" : [
        {
            "channels" : [
                {
                    "sampler" : 0,
                    "target" : {
                        "node" : 1,
                        "path" : "translation"
                    }
                },
                {
                    "sampler" : 1,
                    "target" : {
                        "node" : 1,
                        "path" : "rotation"
                    }
                }
            ],
            "name" : "CilindroAction",
            "samplers" : [
                {
                    "input" : 28,
                    "interpolation" : "LINEAR",
                    "output" : 29
                },
                {
                    "input" : 28,
                    "interpolation" : "LINEAR",
                    "output" : 30
                }
            ]
        },
        {
            "channels" : [
                {
                    "sampler" : 0,
                    "target" : {
                        "node" : 0,
                        "path" : "rotation"
                    }
                }
            ],
            "name" : "Cilindro.001Action.001",
            "samplers" : [
                {
                    "input" : 31,
                    "interpolation" : "LINEAR",
                    "output" : 32
                }
            ]
        }
    ],
    "materials" : [
        {
            "doubleSided" : true,
            "name" : "Grey",
            "pbrMetallicRoughness" : {
                "baseColorFactor" : [
                    0.10247425734996796,
                    0.10247425734996796,
                    0.10247425734996796,
                    1
                ],
                "metallicFactor" : 0,
                "roughnessFactor" : 0.5
            }
        },
        {
            "doubleSided" : true,
            "name" : "Yellow",
            "pbrMetallicRoughness" : {
                "baseColorFactor" : [
                    0.7264356017112732,
                    0.8000000715255737,
                    0,
                    1
                ],
                "metallicFactor" : 0,
                "roughnessFactor" : 0.5
            }
        },
        {
            "doubleSided" : true,
            "name" : "Red",
            "pbrMetallicRoughness" : {
                "baseColorFactor" : [
                    0.8000000715255737,
                    0,
                    0.0030777258798480034,
                    1
                ],
                "metallicFactor" : 0,
                "roughnessFactor" : 0.5
            }
        },
        {
            "doubleSided" : true,
            "name" : "Blue",
            "pbrMetallicRoughness" : {
                "baseColorFactor" : [
                    0.01812223717570305,
                    0.24526120722293854,
                    0.8000000715255737,
                    1
                ],
                "metallicFactor" : 0,
                "roughnessFactor" : 0.5
            }
        }
    ],
    "meshes" : [
        {
            "name" : "Cilindro.002",
            "primitives" : [
                {
                    "attributes" : {
                        "POSITION" : 0,
                        "NORMAL" : 1,
                        "TEXCOORD_0" : 2
                    },
                    "indices" : 3,
                    "material" : 0
                },
                {
                    "attributes" : {
                        "POSITION" : 4,
                        "NORMAL" : 5,
                        "TEXCOORD_0" : 6
                    },
                    "indices" : 7,
                    "material" : 1
                },
                {
                    "attributes" : {
                        "POSITION" : 8,
                        "NORMAL" : 9,
                        "TEXCOORD_0" : 10
                    },
                    "indices" : 11,
                    "material" : 2
                }
            ]
        },
        {
            "name" : "Cilindro.001",
            "primitives" : [
                {
                    "attributes" : {
                        "POSITION" : 12,
                        "NORMAL" : 13,
                        "TEXCOORD_0" : 14
                    },
                    "indices" : 15,
                    "material" : 3
                },
                {
                    "attributes" : {
                        "POSITION" : 16,
                        "NORMAL" : 17,
                        "TEXCOORD_0" : 18
                    },
                    "indices" : 19,
                    "material" : 1
                },
                {
                    "attributes" : {
                        "POSITION" : 20,
                        "NORMAL" : 21,
                        "TEXCOORD_0" : 22
                    },
                    "indices" : 23,
                    "material" : 2
                },
                {
                    "attributes" : {
                        "POSITION" : 24,
                        "NORMAL" : 25,
                        "TEXCOORD_0" : 26
                    },
                    "indices" : 27,
                    "material" : 0
                }
            ]
        }
    ],
    "accessors" : [
        {
            "bufferView" : 0,
            "componentType" : 5126,
            "count" : 216,
            "max" : [
                1.900058388710022,
                0.1761881709098816,
                0.3655563294887543
            ],
            "min" : [
                -2.1322264671325684,
                -0.8130530714988708,
                -0.36365965008735657
            ],
            "type" : "VEC3"
        },
        {
            "bufferView" : 1,
            "componentType" : 5126,
            "count" : 216,
            "type" : "VEC3"
        },
        {
            "bufferView" : 2,
            "componentType" : 5126,
            "count" : 216,
            "type" : "VEC2"
        },
        {
            "bufferView" : 3,
            "componentType" : 5123,
            "count" : 330,
            "type" : "SCALAR"
        },
        {
            "bufferView" : 4,
            "componentType" : 5126,
            "count" : 48,
            "max" : [
                2.1322264671325684,
                0.1761881709098816,
                0.2799052894115448
            ],
            "min" : [
                -2.1322264671325684,
                -0.07643169164657593,
                -0.2867199182510376
            ],
            "type" : "VEC3"
        },
        {
            "bufferView" : 5,
            "componentType" : 5126,
            "count" : 48,
            "type" : "VEC3"
        },
        {
            "bufferView" : 6,
            "componentType" : 5126,
            "count" : 48,
            "type" : "VEC2"
        },
        {
            "bufferView" : 7,
            "componentType" : 5123,
            "count" : 72,
            "type" : "SCALAR"
        },
        {
            "bufferView" : 8,
            "componentType" : 5126,
            "count" : 72,
            "max" : [
                0.3244279623031616,
                0.3770972490310669,
                0.3253763020038605
            ],
            "min" : [
                -0.3244279623031616,
                0.092074453830719,
                -0.32347962260246277
            ],
            "type" : "VEC3"
        },
        {
            "bufferView" : 9,
            "componentType" : 5126,
            "count" : 72,
            "type" : "VEC3"
        },
        {
            "bufferView" : 10,
            "componentType" : 5126,
            "count" : 72,
            "type" : "VEC2"
        },
        {
            "bufferView" : 11,
            "componentType" : 5123,
            "count" : 114,
            "type" : "SCALAR"
        },
        {
            "bufferView" : 12,
            "componentType" : 5126,
            "count" : 578,
            "max" : [
                3.0355348587036133,
                1.363747239112854,
                0.9378970861434937
            ],
            "min" : [
                -3.0355348587036133,
                -1.8796669244766235,
                -1.42750883102417
            ],
            "type" : "VEC3"
        },
        {
            "bufferView" : 13,
            "componentType" : 5126,
            "count" : 578,
            "type" : "VEC3"
        },
        {
            "bufferView" : 14,
            "componentType" : 5126,
            "count" : 578,
            "type" : "VEC2"
        },
        {
            "bufferView" : 15,
            "componentType" : 5123,
            "count" : 870,
            "type" : "SCALAR"
        },
        {
            "bufferView" : 16,
            "componentType" : 5126,
            "count" : 200,
            "max" : [
                3.394124984741211,
                1.346603512763977,
                0.19777780771255493
            ],
            "min" : [
                -3.394124984741211,
                -1.8796669244766235,
                -1.6855502128601074
            ],
            "type" : "VEC3"
        },
        {
            "bufferView" : 17,
            "componentType" : 5126,
            "count" : 200,
            "type" : "VEC3"
        },
        {
            "bufferView" : 18,
            "componentType" : 5126,
            "count" : 200,
            "type" : "VEC2"
        },
        {
            "bufferView" : 19,
            "componentType" : 5123,
            "count" : 300,
            "type" : "SCALAR"
        },
        {
            "bufferView" : 20,
            "componentType" : 5126,
            "count" : 138,
            "max" : [
                0.8593856692314148,
                1.8335362672805786,
                0.8597418665885925
            ],
            "min" : [
                -0.8593856692314148,
                1.3630155324935913,
                -0.8590299487113953
            ],
            "type" : "VEC3"
        },
        {
            "bufferView" : 21,
            "componentType" : 5126,
            "count" : 138,
            "type" : "VEC3"
        },
        {
            "bufferView" : 22,
            "componentType" : 5126,
            "count" : 138,
            "type" : "VEC2"
        },
        {
            "bufferView" : 23,
            "componentType" : 5123,
            "count" : 210,
            "type" : "SCALAR"
        },
        {
            "bufferView" : 24,
            "componentType" : 5126,
            "count" : 32,
            "max" : [
                0.5336902737617493,
                0.7684434652328491,
                -0.587223470211029
            ],
            "min" : [
                -0.5336902737617493,
                -0.5632429122924805,
                -1.42750883102417
            ],
            "type" : "VEC3"
        },
        {
            "bufferView" : 25,
            "componentType" : 5126,
            "count" : 32,
            "type" : "VEC3"
        },
        {
            "bufferView" : 26,
            "componentType" : 5126,
            "count" : 32,
            "type" : "VEC2"
        },
        {
            "bufferView" : 27,
            "componentType" : 5123,
            "count" : 48,
            "type" : "SCALAR"
        },
        {
            "bufferView" : 28,
            "componentType" : 5126,
            "count" : 241,
            "max" : [
                10
            ],
            "min" : [
                0
            ],
            "type" : "SCALAR"
        },
        {
            "bufferView" : 29,
            "componentType" : 5126,
            "count" : 241,
            "type" : "VEC3"
        },
        {
            "bufferView" : 30,
            "componentType" : 5126,
            "count" : 241,
            "type" : "VEC4"
        },
        {
            "bufferView" : 31,
            "componentType" : 5126,
            "count" : 240,
            "max" : [
                10
            ],
            "min" : [
                0.041666666666666664
            ],
            "type" : "SCALAR"
        },
        {
            "bufferView" : 32,
            "componentType" : 5126,
            "count" : 240,
            "type" : "VEC4"
        }
    ],
    "bufferViews" : [
        {
            "buffer" : 0,
            "byteLength" : 2592,
            "byteOffset" : 0
        },
        {
            "buffer" : 0,
            "byteLength" : 2592,
            "byteOffset" : 2592
        },
        {
            "buffer" : 0,
            "byteLength" : 1728,
            "byteOffset" : 5184
        },
        {
            "buffer" : 0,
            "byteLength" : 660,
            "byteOffset" : 6912
        },
        {
            "buffer" : 0,
            "byteLength" : 576,
            "byteOffset" : 7572
        },
        {
            "buffer" : 0,
            "byteLength" : 576,
            "byteOffset" : 8148
        },
        {
            "buffer" : 0,
            "byteLength" : 384,
            "byteOffset" : 8724
        },
        {
            "buffer" : 0,
            "byteLength" : 144,
            "byteOffset" : 9108
        },
        {
            "buffer" : 0,
            "byteLength" : 864,
            "byteOffset" : 9252
        },
        {
            "buffer" : 0,
            "byteLength" : 864,
            "byteOffset" : 10116
        },
        {
            "buffer" : 0,
            "byteLength" : 576,
            "byteOffset" : 10980
        },
        {
            "buffer" : 0,
            "byteLength" : 228,
            "byteOffset" : 11556
        },
        {
            "buffer" : 0,
            "byteLength" : 6936,
            "byteOffset" : 11784
        },
        {
            "buffer" : 0,
            "byteLength" : 6936,
            "byteOffset" : 18720
        },
        {
            "buffer" : 0,
            "byteLength" : 4624,
            "byteOffset" : 25656
        },
        {
            "buffer" : 0,
            "byteLength" : 1740,
            "byteOffset" : 30280
        },
        {
            "buffer" : 0,
            "byteLength" : 2400,
            "byteOffset" : 32020
        },
        {
            "buffer" : 0,
            "byteLength" : 2400,
            "byteOffset" : 34420
        },
        {
            "buffer" : 0,
            "byteLength" : 1600,
            "byteOffset" : 36820
        },
        {
            "buffer" : 0,
            "byteLength" : 600,
            "byteOffset" : 38420
        },
        {
            "buffer" : 0,
            "byteLength" : 1656,
            "byteOffset" : 39020
        },
        {
            "buffer" : 0,
            "byteLength" : 1656,
            "byteOffset" : 40676
        },
        {
            "buffer" : 0,
            "byteLength" : 1104,
            "byteOffset" : 42332
        },
        {
            "buffer" : 0,
            "byteLength" : 420,
            "byteOffset" : 43436
        },
        {
            "buffer" : 0,
            "byteLength" : 384,
            "byteOffset" : 43856
        },
        {
            "buffer" : 0,
            "byteLength" : 384,
            "byteOffset" : 44240
        },
        {
            "buffer" : 0,
            "byteLength" : 256,
            "byteOffset" : 44624
        },
        {
            "buffer" : 0,
            "byteLength" : 96,
            "byteOffset" : 44880
        },
        {
            "buffer" : 0,
            "byteLength" : 964,
            "byteOffset" : 44976
        },
        {
            "buffer" : 0,
            "byteLength" : 2892,
            "byteOffset" : 45940
        },
        {
            "buffer" : 0,
            "byteLength" : 3856,
            "byteOffset" : 48832
        },
        {
            "buffer" : 0,
            "byteLength" : 960,
            "byteOffset" : 52688
        },
        {
            "buffer" : 0,
            "byteLength" : 3840,
            "byteOffset" : 53648
        }
    ],
    "buffers" : [
        {
            "byteLength" : 57488,
            "uri" : "data:application/octet-stream;base64,"
        }
    ]
}
